# xmcd CD database file
#
# Track frame offsets:
#	150
#	6357
#	23852
#	43555
#	47925
#	66427
#	69895
#	91552
#	111272
#	113529
#	131160
#	148222
#	166582
#	187650
#
# Disc length: 2829 seconds
#
# Revision: 2
# Processed by: cddbd v1.5.2PL0 Copyright (c) Steve Scherf et al.
# Submitted via: CDex 1.70beta2
#
DISCID=b50b0b0e
DTITLE=Case - Case
DYEAR=1996
DGENRE=R&B
TTITLE0=The Tunnel (Interlude)
TTITLE1=More To Love
TTITLE2=Don't Be Afraid
TTITLE3=Call A Cab (Interlude)
TTITLE4=I Gotcha
TTITLE5=Crazy (Interlude)
TTITLE6=Crazy
TTITLE7=What's Wrong?
TTITLE8=Rain (Interlude)
TTITLE9=Rain
TTITLE10=Touch Me Tease Me
TTITLE11=The Day That I Die
TTITLE12=Fallin'
TTITLE13=Cryin' Over Time
EXTD=YEAR: 1996
EXTT0=
EXTT1=
EXTT2=
EXTT3=
EXTT4=
EXTT5=
EXTT6=
EXTT7=
EXTT8=
EXTT9=
EXTT10=
EXTT11=
EXTT12=
EXTT13=
PLAYORDER=
